<svg xmlns="http://www.w3.org/2000/svg" viewBox="0 0 62 86"><g fill="#6589a4"><path d="M19 67v-8h-5v23H9v4h14V67h-4z"/><path d="M19 59v8h4v19h25V54H19v5z"/></g><path fill="#be3827" d="M48 86h5V15h5v-5h4V5h-4v5H48V5h-5v5h5v76z"/><path fill="#fbd868" d="M9 37h10V23h29v5h5v14h-5v9H14v-5H9v-9z"/><path fill="#bec1c3" d="M33 39h10v5H33zm-19-2h5v9h-5z"/><path fill="#bec1c3" d="M48 39v5.34h-5v5.35H33v-5.35h-4v4.28h-6v5.35h6v5.34h4v5.35h5V70h5v-5.34h5V53.97h5v-5.35h4V39h-9zM0 47h9v-9h10V24h29v4h5V18h-5v-5H14v5H9v5H5v15H0v9z"/><path d="M28 33h5v5h-5zm15 0h5v5h-5z"/><path fill="#fff" opacity=".2" d="M19 67v-8h-5v23H9v4h14V67h-4z"/><path fill="#fbd868" d="M14 73h5v5h-5zm34-10h5v5h-5z"/><path fill="#3aa2ca" d="M48 0h10v10H48z"/><path fill="#acd5fb" d="M52 0h5v5h-5z"/></svg>